<svg width="24" height="24" viewBox="0 0 24 24" fill="none" xmlns="http://www.w3.org/2000/svg">
<g clip-path="url(#clip0)">
<path d="M23.3702 18.5153L18.5125 15.2758C17.8961 14.868 17.0697 15.0022 16.614 15.5842L15.199 17.4035C15.0172 17.6433 14.6866 17.7128 14.4235 17.5667L14.1544 17.4183C13.2621 16.9319 12.1519 16.3265 9.91501 14.0888C7.67814 11.8511 7.07144 10.7401 6.58509 9.84943L6.4375 9.58026C6.28935 9.31724 6.35759 8.98527 6.59746 8.80197L8.41557 7.3874C8.99729 6.93161 9.13166 6.10551 8.72433 5.48887L5.48481 0.631187C5.06736 0.00324861 4.22983 -0.185255 3.58356 0.203235L1.55225 1.42344C0.914006 1.79867 0.445747 2.40636 0.245667 3.11918C-0.485802 5.78438 0.064475 10.3841 6.84028 17.1607C12.2303 22.5503 16.2429 23.9997 19.0009 23.9997C19.6356 24.0024 20.2679 23.9198 20.8806 23.7541C21.5936 23.5543 22.2014 23.086 22.5764 22.4476L23.7978 20.4175C24.1869 19.7711 23.9984 18.933 23.3702 18.5153ZM23.1087 20.0071L21.89 22.0384C21.6208 22.4992 21.1836 22.838 20.6702 22.9839C18.2098 23.6594 13.9112 23.0999 7.40617 16.5948C0.901117 10.0898 0.341653 5.79159 1.01716 3.33079C1.1632 2.81674 1.50243 2.37904 1.9638 2.10936L3.99511 0.890742C4.27552 0.722017 4.63903 0.803802 4.82018 1.07629L6.57993 3.71829L8.05693 5.93356C8.23381 6.20103 8.17569 6.55953 7.92336 6.75745L6.10483 8.17202C5.55141 8.59519 5.39337 9.36088 5.7341 9.96857L5.8785 10.2309C6.38965 11.1684 7.02513 12.3346 9.34519 14.6543C11.6653 16.9739 12.8311 17.6095 13.7681 18.1206L14.0309 18.2653C14.6385 18.606 15.4042 18.448 15.8274 17.8946L17.242 16.0761C17.44 15.8239 17.7983 15.7658 18.0659 15.9425L22.9231 19.182C23.1958 19.363 23.2776 19.7267 23.1087 20.0071Z" fill="white"/>
<path d="M13.5991 4.002C17.3524 4.00617 20.3939 7.04777 20.3981 10.801C20.3981 11.0219 20.5772 11.2009 20.7981 11.2009C21.019 11.2009 21.198 11.0219 21.198 10.801C21.1934 6.60617 17.794 3.20674 13.5991 3.20215C13.3783 3.20215 13.1992 3.38118 13.1992 3.60207C13.1992 3.82296 13.3783 4.002 13.5991 4.002Z" fill="white"/>
<path d="M13.5991 6.40166C16.0277 6.40452 17.9956 8.37251 17.9985 10.801C17.9985 11.0219 18.1776 11.2009 18.3984 11.2009C18.6193 11.2009 18.7984 11.0219 18.7984 10.801C18.795 7.93091 16.4692 5.60509 13.5991 5.60181C13.3783 5.60181 13.1992 5.78084 13.1992 6.00173C13.1992 6.22262 13.3783 6.40166 13.5991 6.40166Z" fill="white"/>
<path d="M13.5991 8.80131C14.703 8.80263 15.5975 9.69715 15.5989 10.801C15.5989 11.0219 15.7779 11.201 15.9988 11.201C16.2196 11.201 16.3987 11.0219 16.3987 10.801C16.3969 9.25561 15.1446 8.0032 13.5991 8.00146C13.3783 8.00146 13.1992 8.1805 13.1992 8.40139C13.1992 8.62228 13.3783 8.80131 13.5991 8.80131Z" fill="white"/>
</g>
<defs>
<clipPath id="clip0">
<rect width="24" height="24" fill="white"/>
</clipPath>
</defs>
</svg>
