<svg width="30" height="28" viewBox="0 0 30 28" fill="none" xmlns="http://www.w3.org/2000/svg">
<path d="M27.5768 3.26133C26.0059 1.69042 23.9262 0.831824 21.7066 0.831824C19.487 0.831824 17.4009 1.69678 15.83 3.26769L15.0095 4.08812L14.1764 3.25497C12.6055 1.68406 10.5131 0.812744 8.29342 0.812744C6.08016 0.812744 3.99409 1.6777 2.42954 3.24225C0.858629 4.81316 -0.00632514 6.89923 3.48253e-05 9.11886C3.48253e-05 11.3385 0.871349 13.4182 2.44226 14.9891L14.3863 26.9331C14.5516 27.0985 14.7742 27.1875 14.9905 27.1875C15.2067 27.1875 15.4293 27.1048 15.5947 26.9395L27.5641 15.0145C29.135 13.4436 30 11.3576 30 9.13793C30.0063 6.91831 29.1477 4.83224 27.5768 3.26133ZM26.3557 13.7998L14.9905 25.1205L3.65065 13.7807C2.4041 12.5342 1.71722 10.8806 1.71722 9.11886C1.71722 7.35715 2.39774 5.70356 3.64429 4.46336C4.88448 3.22317 6.53807 2.53629 8.29342 2.53629C10.0551 2.53629 11.7151 3.22317 12.9616 4.46972L14.399 5.90707C14.7361 6.24415 15.2767 6.24415 15.6137 5.90707L17.0384 4.48244C18.2849 3.23589 19.9449 2.54901 21.7002 2.54901C23.4556 2.54901 25.1092 3.23589 26.3557 4.47608C27.6023 5.72263 28.2828 7.37622 28.2828 9.13793C28.2891 10.8996 27.6023 12.5532 26.3557 13.7998Z" fill="white"/>
</svg>
