<svg width="175" height="49" viewBox="0 0 175 49" fill="none" xmlns="http://www.w3.org/2000/svg">
<g clip-path="url(#clip0)">
<path d="M77.7431 6.77275C76.7544 5.84919 75.6617 5.07956 74.4648 4.61778C73.2159 4.10469 71.915 3.84814 70.5621 3.84814C69.2091 3.84814 67.8561 4.10469 66.6593 4.61778C65.4104 5.13087 64.3176 5.79788 63.3289 6.77275C62.3402 7.69631 61.6117 8.7738 61.0913 10.0052C60.571 11.1853 60.3108 12.468 60.3108 13.8021C60.3108 15.1361 60.571 16.3675 61.0913 17.5989C61.6117 18.779 62.3402 19.8565 63.3289 20.7801C64.3176 21.755 65.4104 22.4733 66.6593 22.9351C67.9082 23.4481 69.2091 23.7047 70.5621 23.7047C71.915 23.7047 73.268 23.4481 74.4648 22.9351C75.6617 22.422 76.8065 21.7036 77.7431 20.7801C78.7318 19.8565 79.4604 18.779 79.9807 17.5989C80.5011 16.4188 80.7613 15.1361 80.7613 13.8021C80.7613 12.468 80.5011 11.1853 79.9807 10.0052C79.5124 8.7738 78.7318 7.69631 77.7431 6.77275ZM73.268 16.4701C72.5395 17.2398 71.6028 17.5989 70.5621 17.5989C69.4693 17.5989 68.5847 17.2398 67.8041 16.4701C67.0756 15.7005 66.6593 14.7769 66.6593 13.6995C66.6593 12.622 67.0235 11.6984 67.8041 10.9288C68.5847 10.1591 69.4693 9.79998 70.5621 9.79998C71.6028 9.79998 72.5395 10.1591 73.268 10.9288C73.9965 11.6984 74.4128 12.622 74.4128 13.6995C74.4128 14.8282 73.9965 15.7005 73.268 16.4701Z" fill="white"/>
<path d="M98.4539 9.5434H102.201V23.3455H108.445V9.5434H112.192V4.20728H98.4539V9.5434Z" fill="white"/>
<path d="M141.228 4.87432C140.5 4.20731 139.459 3.84814 138.158 3.84814C137.065 3.84814 136.181 4.10469 135.452 4.61778C134.724 5.13087 134.255 5.84919 134.047 6.77275L133.006 10.9801C132.954 11.134 132.902 11.3906 132.85 11.7497C132.798 12.1089 132.694 12.7246 132.538 13.5968C132.434 13.0324 132.382 12.5193 132.278 12.1089C132.226 11.6471 132.122 11.2879 132.07 10.9801L131.029 6.77275C130.769 5.84919 130.3 5.13087 129.624 4.61778C128.895 4.10469 128.011 3.84814 126.918 3.84814C125.617 3.84814 124.576 4.20731 123.848 4.87432C123.067 5.54134 122.651 6.51621 122.495 7.79893L120.986 23.3455H126.97L127.803 10.9288C127.907 11.4932 127.959 12.0576 128.063 12.5193C128.115 12.9811 128.219 13.3403 128.271 13.6481L130.144 21.3445C130.352 22.1141 130.613 22.6785 131.029 23.0377C131.393 23.3968 131.914 23.6021 132.486 23.6021C133.11 23.6021 133.579 23.3968 133.995 23.0377C134.359 22.6785 134.672 22.0628 134.88 21.3445L136.753 13.6481C136.857 13.2377 136.909 12.8272 137.013 12.3654C137.117 11.9036 137.169 11.4419 137.221 10.9288L138.054 23.3455H144.194L142.633 7.79893C142.425 6.51621 142.009 5.54134 141.228 4.87432Z" fill="white"/>
<path d="M95.3836 5.69527C94.7071 5.07956 93.9265 4.61778 93.0419 4.30992C92.1573 4.00207 91.2206 3.84814 90.2319 3.84814C87.9423 3.84814 86.121 4.56647 84.716 5.95181C83.363 7.33715 82.6345 9.18427 82.6345 11.4932V23.3455H88.879V11.5958C88.879 10.7748 88.983 10.2104 89.2432 9.85129C89.5034 9.49212 89.8677 9.3382 90.4401 9.3382C90.8564 9.3382 91.2206 9.49212 91.5328 9.74867C91.8451 10.0052 91.9491 10.3644 91.9491 10.7748C91.9491 11.2879 91.793 11.6471 91.4288 11.9036C91.0645 12.1602 90.5962 12.2628 89.8677 12.2628H89.5554V17.6502H89.9197C92.2093 17.6502 94.0826 16.9832 95.4876 15.7518C96.8926 14.4691 97.6212 12.8272 97.6212 10.7748C97.6212 9.79998 97.413 8.87642 97.0487 8.00417C96.7365 7.13191 96.1641 6.36228 95.3836 5.69527Z" fill="white"/>
<path d="M116.511 1.89844C115.574 1.89844 114.793 2.20629 114.117 2.822C113.44 3.4377 113.128 4.20734 113.128 5.1309C113.128 6.00315 113.44 6.82409 114.117 7.4398C114.793 8.0555 115.574 8.41467 116.511 8.41467C117.447 8.41467 118.228 8.10681 118.904 7.49111C119.529 6.8754 119.893 6.10577 119.893 5.18221C119.893 4.30996 119.581 3.48901 118.904 2.87331C118.228 2.20629 117.447 1.89844 116.511 1.89844Z" fill="white"/>
<path d="M172.034 18.0094C171.357 18.0094 170.889 17.8554 170.577 17.5476C170.265 17.2397 170.056 16.778 170.056 16.1109V4.20728H163.812V16.5727C163.812 18.8816 164.436 20.6261 165.581 21.7036C166.778 22.8324 168.599 23.3455 171.097 23.3455H174.948V18.0094H172.034Z" fill="white"/>
<path d="M119.32 9.38965H113.648V23.3457H119.32V9.38965Z" fill="white"/>
<path d="M153.561 3.89941C151.167 3.89941 149.294 4.66905 147.889 6.20831C146.432 7.74758 145.755 9.79994 145.755 12.4167V23.3455H152V11.6984C152 11.0314 152.156 10.5696 152.416 10.2104C152.676 9.85125 153.093 9.69732 153.613 9.69732C154.133 9.69732 154.55 9.85125 154.862 10.2104C155.174 10.5696 155.278 11.0314 155.278 11.6984V12.3141H152.728V17.3423H155.278V23.3968H161.471V12.3654C161.471 9.74863 160.742 7.69627 159.285 6.15701C157.88 4.66905 155.955 3.89941 153.561 3.89941Z" fill="white"/>
<path d="M71.4467 32.3246C71.3426 32.3246 71.1865 32.3246 71.0824 32.3246C70.9784 32.3246 70.7702 32.3246 70.51 32.3246C68.6367 32.3246 67.1797 32.735 66.191 33.5047C65.2023 34.2743 64.6819 35.4031 64.6819 36.8398C64.6819 38.3277 65.2023 39.4565 66.191 40.2261C67.1797 40.9958 68.6367 41.4062 70.51 41.4062C70.7702 41.4062 70.9784 41.4062 71.1345 41.4062C71.2385 41.4062 71.3947 41.4062 71.4987 41.4062V45.4083H71.0824C69.5734 45.4083 68.2724 45.3057 67.1276 45.0492C65.9828 44.7926 65.0462 44.4335 64.2656 43.9717C63.0167 43.2021 62.028 42.1759 61.3515 40.9445C60.675 39.7131 60.3108 38.379 60.3108 36.8911C60.3108 35.4031 60.675 34.0691 61.3515 32.8377C62.028 31.6062 63.0167 30.6314 64.2656 29.8104C65.0462 29.3486 65.9828 28.9895 67.1276 28.7329C68.2724 28.4764 69.5734 28.3738 71.0824 28.3738H71.4987V32.3246H71.4467Z" fill="white"/>
<path d="M73.2678 28.3225H77.5348V39.6105C77.5348 40.1749 77.691 40.6366 78.0032 40.8932C78.3154 41.201 78.7317 41.3037 79.3561 41.3037H82.6865V45.2544H79.2521C77.2226 45.2544 75.7136 44.7927 74.7249 43.8691C73.7362 42.9455 73.2678 41.5089 73.2678 39.5592V28.3225Z" fill="white"/>
<path d="M96.6326 28.3225V38.3791C96.6326 40.5853 96.0602 42.3298 94.8633 43.6639C93.6665 44.9979 92.1054 45.6136 90.0759 45.6136C88.0985 45.6136 86.4854 44.9466 85.2885 43.6639C84.0917 42.3298 83.5193 40.5853 83.5193 38.3791V28.3225H87.7863V38.5843C87.7863 39.5079 87.9945 40.2262 88.3587 40.688C88.775 41.1497 89.3474 41.4063 90.0759 41.4063C90.8565 41.4063 91.4289 41.1497 91.7931 40.688C92.2094 40.2262 92.3656 39.5079 92.3656 38.5843V28.3225H96.6326Z" fill="white"/>
<path d="M98.9221 45.3058V34.1717C98.9221 32.3246 99.4945 30.8366 100.639 29.7078C101.784 28.579 103.293 28.0146 105.115 28.0146C106.78 28.0146 108.133 28.4764 109.225 29.5026C110.318 30.4775 110.891 31.6576 110.891 33.0942C110.891 33.7612 110.735 34.377 110.422 34.89C110.11 35.4031 109.642 35.8649 109.017 36.2241C109.902 36.6345 110.63 37.1989 111.099 37.9173C111.567 38.6356 111.827 39.4565 111.827 40.3801C111.827 40.9958 111.723 41.6115 111.515 42.1759C111.307 42.7403 110.995 43.2534 110.578 43.6639C110.006 44.2796 109.33 44.69 108.549 44.9466C107.768 45.2031 106.624 45.3058 105.167 45.3058H103.97V41.5602H105.427C106.051 41.5602 106.572 41.4063 106.884 41.1497C107.248 40.8419 107.404 40.4827 107.404 39.9696C107.404 39.4565 107.196 39.0974 106.884 38.7895C106.52 38.4817 106.051 38.3791 105.427 38.3791H103.97V34.9927H104.594C105.323 34.9927 105.843 34.8387 106.207 34.5822C106.572 34.3256 106.728 33.9152 106.728 33.3508C106.728 32.889 106.572 32.5298 106.259 32.222C105.947 31.9141 105.583 31.7602 105.115 31.7602C104.49 31.7602 104.074 31.9654 103.71 32.3759C103.397 32.7864 103.241 33.3508 103.241 34.1204V45.3571H98.9221V45.3058Z" fill="white"/>
<path d="M71.4467 32.3246C71.3426 32.3246 71.1865 32.3246 71.0824 32.3246C70.9784 32.3246 70.7702 32.3246 70.51 32.3246C68.6367 32.3246 67.1797 32.735 66.191 33.5047C65.2023 34.2743 64.6819 35.4031 64.6819 36.8398C64.6819 38.3277 65.2023 39.4565 66.191 40.2261C67.1797 40.9958 68.6367 41.4062 70.51 41.4062C70.7702 41.4062 70.9784 41.4062 71.1345 41.4062C71.2385 41.4062 71.3947 41.4062 71.4987 41.4062V45.4083H71.0824C69.5734 45.4083 68.2724 45.3057 67.1276 45.0492C65.9828 44.7926 65.0462 44.4335 64.2656 43.9717C63.0167 43.2021 62.028 42.1759 61.3515 40.9445C60.675 39.7131 60.3108 38.379 60.3108 36.8911C60.3108 35.4031 60.675 34.0691 61.3515 32.8377C62.028 31.6062 63.0167 30.6314 64.2656 29.8104C65.0462 29.3486 65.9828 28.9895 67.1276 28.7329C68.2724 28.4764 69.5734 28.3738 71.0824 28.3738H71.4987V32.3246H71.4467Z" fill="white"/>
<path d="M73.2678 28.3225H77.5348V39.6105C77.5348 40.1749 77.691 40.6366 78.0032 40.8932C78.3154 41.201 78.7317 41.3037 79.3561 41.3037H82.6865V45.2544H79.2521C77.2226 45.2544 75.7136 44.7927 74.7249 43.8691C73.7362 42.9455 73.2678 41.5089 73.2678 39.5592V28.3225Z" fill="white"/>
<path d="M96.6326 28.3225V38.3791C96.6326 40.5853 96.0602 42.3298 94.8633 43.6639C93.6665 44.9979 92.1054 45.6136 90.0759 45.6136C88.0985 45.6136 86.4854 44.9466 85.2885 43.6639C84.0917 42.3298 83.5193 40.5853 83.5193 38.3791V28.3225H87.7863V38.5843C87.7863 39.5079 87.9945 40.2262 88.3587 40.688C88.775 41.1497 89.3474 41.4063 90.0759 41.4063C90.8565 41.4063 91.4289 41.1497 91.7931 40.688C92.2094 40.2262 92.3656 39.5079 92.3656 38.5843V28.3225H96.6326Z" fill="white"/>
<path d="M98.9221 45.3058V34.1717C98.9221 32.3246 99.4945 30.8366 100.639 29.7078C101.784 28.579 103.293 28.0146 105.115 28.0146C106.78 28.0146 108.133 28.4764 109.225 29.5026C110.318 30.4775 110.891 31.6576 110.891 33.0942C110.891 33.7612 110.735 34.377 110.422 34.89C110.11 35.4031 109.642 35.8649 109.017 36.2241C109.902 36.6345 110.63 37.1989 111.099 37.9173C111.567 38.6356 111.827 39.4565 111.827 40.3801C111.827 40.9958 111.723 41.6115 111.515 42.1759C111.307 42.7403 110.995 43.2534 110.578 43.6639C110.006 44.2796 109.33 44.69 108.549 44.9466C107.768 45.2031 106.624 45.3058 105.167 45.3058H103.97V41.5602H105.427C106.051 41.5602 106.572 41.4063 106.884 41.1497C107.248 40.8419 107.404 40.4827 107.404 39.9696C107.404 39.4565 107.196 39.0974 106.884 38.7895C106.52 38.4817 106.051 38.3791 105.427 38.3791H103.97V34.9927H104.594C105.323 34.9927 105.843 34.8387 106.207 34.5822C106.572 34.3256 106.728 33.9152 106.728 33.3508C106.728 32.889 106.572 32.5298 106.259 32.222C105.947 31.9141 105.583 31.7602 105.115 31.7602C104.49 31.7602 104.074 31.9654 103.71 32.3759C103.397 32.7864 103.241 33.3508 103.241 34.1204V45.3571H98.9221V45.3058Z" fill="white"/>
<path d="M24.8736 0C11.1359 0 0 10.9801 0 24.5257C0 38.0712 11.1359 49.0513 24.8736 49.0513C38.6114 49.0513 49.7473 38.0712 49.7473 24.5257C49.7473 10.9801 38.6114 0 24.8736 0ZM24.8736 47.1529C12.3327 47.1529 2.13351 37.0963 2.13351 24.7309C2.13351 12.3141 12.2807 2.25759 24.8736 2.25759C37.4145 2.25759 47.6137 12.3141 47.6137 24.6796C47.6137 37.0963 37.4145 47.1529 24.8736 47.1529Z" fill="white"/>
<path d="M15.1949 19.7025C17.5886 19.7025 19.566 21.601 19.566 23.9612C19.566 25.09 19.0976 26.1674 18.3171 26.9884C17.4845 27.8093 16.3917 28.2198 15.2469 28.2198C12.8532 28.2198 10.9278 26.2701 10.8758 23.9099C10.8758 22.7811 11.3441 21.7036 12.1247 20.8826C12.9052 20.1643 13.998 19.7025 15.1949 19.7025ZM21.8556 23.5507C22.6882 22.7298 23.7809 22.3193 24.9258 22.3193C27.3195 22.3193 29.2969 24.269 29.2969 26.6292C29.2969 27.758 28.8285 28.8355 28.048 29.6565C27.2154 30.4774 26.1226 30.8879 24.9778 30.8879C22.5841 30.8879 20.6587 28.9894 20.6587 26.6292C20.5547 25.3978 21.023 24.3203 21.8556 23.5507ZM31.6906 20.9852C32.5231 20.1643 33.6159 19.7538 34.7607 19.7538C37.1544 19.7538 39.0798 21.6523 39.0798 24.0125C39.0798 25.1413 38.6115 26.2188 37.8309 27.0397C36.9983 27.8606 35.9055 28.2711 34.7607 28.2711C32.367 28.2711 30.3896 26.3214 30.3896 23.9612C30.4417 22.8324 30.858 21.7549 31.6906 20.9852ZM9.67896 24.0125C9.67896 27.0397 12.1767 29.4512 15.1949 29.4512C16.6519 29.4512 18.0569 28.8868 19.0976 27.8606C19.2537 27.7067 19.3578 27.5528 19.5139 27.3989C19.9302 30.0156 22.2198 32.0167 24.9258 32.0167C26.3828 32.0167 27.7878 31.4523 28.8285 30.4261C29.7132 29.5538 30.2335 28.4763 30.3896 27.2962C31.3783 28.6303 32.9915 29.4512 34.7607 29.4512C36.2178 29.4512 37.6228 28.8868 38.6635 27.8606C39.7042 26.8345 40.2766 25.4491 40.2766 24.0125C40.2766 21.0366 37.7789 18.5737 34.7607 18.5737C33.3037 18.5737 31.8987 19.1381 30.858 20.1643C29.9733 21.0366 29.453 22.114 29.2969 23.2941C28.2561 21.9601 26.695 21.1392 24.8737 21.1392C23.4167 21.1392 22.0117 21.7036 20.971 22.7298C20.8148 22.8837 20.6587 23.0376 20.5547 23.1915C20.1384 20.5748 17.8487 18.5737 15.0908 18.5737C13.6338 18.5737 12.2288 19.1381 11.188 20.1643C10.2514 21.1905 9.67896 22.5245 9.67896 24.0125Z" fill="white"/>
<path d="M15.1949 19.7025C17.5886 19.7025 19.566 21.601 19.566 23.9612C19.566 25.09 19.0976 26.1674 18.3171 26.9884C17.4845 27.8093 16.3917 28.2198 15.2469 28.2198C12.8532 28.2198 10.9278 26.2701 10.8758 23.9099C10.8758 22.7811 11.3441 21.7036 12.1247 20.8826C12.9052 20.1643 13.998 19.7025 15.1949 19.7025ZM21.8556 23.5507C22.6882 22.7298 23.7809 22.3193 24.9258 22.3193C27.3195 22.3193 29.2969 24.269 29.2969 26.6292C29.2969 27.758 28.8285 28.8355 28.048 29.6565C27.2154 30.4774 26.1226 30.8879 24.9778 30.8879C22.5841 30.8879 20.6587 28.9894 20.6587 26.6292C20.5547 25.3978 21.023 24.3203 21.8556 23.5507ZM31.6906 20.9852C32.5231 20.1643 33.6159 19.7538 34.7607 19.7538C37.1544 19.7538 39.0798 21.6523 39.0798 24.0125C39.0798 25.1413 38.6115 26.2188 37.8309 27.0397C36.9983 27.8606 35.9055 28.2711 34.7607 28.2711C32.367 28.2711 30.3896 26.3214 30.3896 23.9612C30.4417 22.8324 30.858 21.7549 31.6906 20.9852ZM9.67896 24.0125C9.67896 27.0397 12.1767 29.4512 15.1949 29.4512C16.6519 29.4512 18.0569 28.8868 19.0976 27.8606C19.2537 27.7067 19.3578 27.5528 19.5139 27.3989C19.9302 30.0156 22.2198 32.0167 24.9258 32.0167C26.3828 32.0167 27.7878 31.4523 28.8285 30.4261C29.7132 29.5538 30.2335 28.4763 30.3896 27.2962C31.3783 28.6303 32.9915 29.4512 34.7607 29.4512C36.2178 29.4512 37.6228 28.8868 38.6635 27.8606C39.7042 26.8345 40.2766 25.4491 40.2766 24.0125C40.2766 21.0366 37.7789 18.5737 34.7607 18.5737C33.3037 18.5737 31.8987 19.1381 30.858 20.1643C29.9733 21.0366 29.453 22.114 29.2969 23.2941C28.2561 21.9601 26.695 21.1392 24.8737 21.1392C23.4167 21.1392 22.0117 21.7036 20.971 22.7298C20.8148 22.8837 20.6587 23.0376 20.5547 23.1915C20.1384 20.5748 17.8487 18.5737 15.0908 18.5737C13.6338 18.5737 12.2288 19.1381 11.188 20.1643C10.2514 21.1905 9.67896 22.5245 9.67896 24.0125Z" fill="white"/>
<path d="M9.31452 36.8398C9.52267 33.7613 10.9277 31.8116 11.6041 31.0932C14.6743 33.1969 17.7445 31.7603 18.8893 31.0932C19.4617 31.7089 19.93 32.4786 20.2423 33.1969C19.6699 33.9152 18.8373 35.1466 18.3689 36.8398H9.31452ZM21.3871 33.6587C24.4573 35.7623 27.5274 34.3257 28.6722 33.6074C30.3895 35.4545 30.7537 38.2252 30.8057 39.4053H19.0975C19.3056 36.3267 20.7106 34.4283 21.3871 33.6587ZM31.222 31.0932C34.2922 33.1969 37.3624 31.7603 38.5072 31.0932C40.2244 32.9404 40.5887 35.711 40.6407 36.8911H31.5863C31.2741 35.711 30.7537 34.4283 29.8691 33.2995C30.3374 32.222 30.8578 31.5037 31.222 31.0932ZM17.9006 40.021C17.9006 40.1749 17.9526 40.3288 18.0567 40.4315C18.1608 40.5341 18.3169 40.5854 18.473 40.5854H31.3782C31.6904 40.5854 31.9506 40.3288 31.9506 40.021C31.9506 39.9697 31.9506 39.1487 31.7945 38.0199H41.2131C41.5253 38.0199 41.7855 37.7634 41.7855 37.4555C41.7855 37.2503 41.8896 32.5812 38.9235 29.9131C38.7154 29.7079 38.4031 29.7079 38.195 29.8618C38.143 29.9131 34.7085 32.4273 31.4822 29.8618C31.2741 29.7079 30.9619 29.7079 30.7537 29.8618C30.7017 29.9131 29.713 30.7341 28.9324 32.3247C28.7243 32.2733 28.5161 32.2733 28.36 32.376C28.2039 32.4786 24.8735 34.9414 21.6473 32.376C21.4911 32.2733 21.283 32.222 21.1269 32.2733C20.7106 31.4011 20.1382 30.5288 19.3576 29.8618C19.1495 29.6566 18.8373 29.6566 18.5771 29.8105C18.5251 29.8618 15.0906 32.376 11.9164 29.8105C11.7082 29.6566 11.396 29.6566 11.1358 29.8105C11.0317 29.9131 8.16971 32.4273 8.11768 37.3529C8.11768 37.5069 8.16971 37.6608 8.27379 37.7634C8.37786 37.866 8.53397 37.9173 8.69008 37.9173H18.0567C18.0047 38.6356 17.9006 39.3027 17.9006 40.021Z" fill="white"/>
<path d="M9.31452 36.8398C9.52267 33.7613 10.9277 31.8116 11.6041 31.0932C14.6743 33.1969 17.7445 31.7603 18.8893 31.0932C19.4617 31.7089 19.93 32.4786 20.2423 33.1969C19.6699 33.9152 18.8373 35.1466 18.3689 36.8398H9.31452ZM21.3871 33.6587C24.4573 35.7623 27.5274 34.3257 28.6722 33.6074C30.3895 35.4545 30.7537 38.2252 30.8057 39.4053H19.0975C19.3056 36.3267 20.7106 34.4283 21.3871 33.6587ZM31.222 31.0932C34.2922 33.1969 37.3624 31.7603 38.5072 31.0932C40.2244 32.9404 40.5887 35.711 40.6407 36.8911H31.5863C31.2741 35.711 30.7537 34.4283 29.8691 33.2995C30.3374 32.222 30.8578 31.5037 31.222 31.0932ZM17.9006 40.021C17.9006 40.1749 17.9526 40.3288 18.0567 40.4315C18.1608 40.5341 18.3169 40.5854 18.473 40.5854H31.3782C31.6904 40.5854 31.9506 40.3288 31.9506 40.021C31.9506 39.9697 31.9506 39.1487 31.7945 38.0199H41.2131C41.5253 38.0199 41.7855 37.7634 41.7855 37.4555C41.7855 37.2503 41.8896 32.5812 38.9235 29.9131C38.7154 29.7079 38.4031 29.7079 38.195 29.8618C38.143 29.9131 34.7085 32.4273 31.4822 29.8618C31.2741 29.7079 30.9619 29.7079 30.7537 29.8618C30.7017 29.9131 29.713 30.7341 28.9324 32.3247C28.7243 32.2733 28.5161 32.2733 28.36 32.376C28.2039 32.4786 24.8735 34.9414 21.6473 32.376C21.4911 32.2733 21.283 32.222 21.1269 32.2733C20.7106 31.4011 20.1382 30.5288 19.3576 29.8618C19.1495 29.6566 18.8373 29.6566 18.5771 29.8105C18.5251 29.8618 15.0906 32.376 11.9164 29.8105C11.7082 29.6566 11.396 29.6566 11.1358 29.8105C11.0317 29.9131 8.16971 32.4273 8.11768 37.3529C8.11768 37.5069 8.16971 37.6608 8.27379 37.7634C8.37786 37.866 8.53397 37.9173 8.69008 37.9173H18.0567C18.0047 38.6356 17.9006 39.3027 17.9006 40.021Z" fill="white"/>
<path d="M24.9776 8.92773C21.8554 8.92773 19.3577 11.3906 19.3577 14.4691C19.3577 17.5476 21.8554 20.0105 24.9776 20.0105C28.0999 20.0105 30.5976 17.5476 30.5976 14.4691C30.5976 11.3906 28.0999 8.92773 24.9776 8.92773ZM24.9776 18.8304C22.5319 18.8304 20.6065 16.8806 20.6065 14.5204C20.6065 12.1089 22.584 10.2105 24.9776 10.2105C27.3713 10.2105 29.3487 12.1602 29.3487 14.5204C29.3487 16.8806 27.4234 18.8304 24.9776 18.8304Z" fill="white"/>
<path d="M24.9776 8.92773C21.8554 8.92773 19.3577 11.3906 19.3577 14.4691C19.3577 17.5476 21.8554 20.0105 24.9776 20.0105C28.0999 20.0105 30.5976 17.5476 30.5976 14.4691C30.5976 11.3906 28.0999 8.92773 24.9776 8.92773ZM24.9776 18.8304C22.5319 18.8304 20.6065 16.8806 20.6065 14.5204C20.6065 12.1089 22.584 10.2105 24.9776 10.2105C27.3713 10.2105 29.3487 12.1602 29.3487 14.5204C29.3487 16.8806 27.4234 18.8304 24.9776 18.8304Z" fill="white"/>
</g>
<defs>
<clipPath id="clip0">
<rect width="175" height="49" fill="white"/>
</clipPath>
</defs>
</svg>
