<svg width="27" height="29" viewBox="0 0 27 29" fill="none" xmlns="http://www.w3.org/2000/svg">
<path d="M7.70585 19.0943H23.6849C25.4967 19.0943 26.9749 17.6162 26.9749 15.8043V9.08133C26.9749 9.07537 26.9749 9.06345 26.9749 9.05749C26.9749 9.03961 26.9749 9.02769 26.9749 9.00981C26.9749 8.99789 26.9749 8.98597 26.9689 8.97405C26.9689 8.96213 26.9629 8.94425 26.9629 8.93233C26.9629 8.92041 26.957 8.90849 26.957 8.89657C26.951 8.88465 26.951 8.87273 26.9451 8.85485C26.9391 8.84293 26.9391 8.83101 26.9331 8.81909C26.9272 8.80717 26.9272 8.79525 26.9212 8.78333C26.9153 8.77141 26.9093 8.75949 26.9033 8.74161C26.8974 8.72969 26.8914 8.71776 26.8855 8.71181C26.8795 8.69989 26.8735 8.68796 26.8676 8.67604C26.8616 8.66412 26.8557 8.65816 26.8497 8.64624C26.8437 8.63432 26.8318 8.6224 26.8259 8.61048C26.8199 8.59856 26.8139 8.5926 26.802 8.58068C26.7961 8.56876 26.7841 8.5628 26.7782 8.55088C26.7722 8.53896 26.7603 8.533 26.7543 8.52108C26.7484 8.50916 26.7365 8.5032 26.7305 8.49724C26.7186 8.48532 26.7126 8.47936 26.7007 8.46744C26.6888 8.46148 26.6828 8.44956 26.6709 8.4436C26.659 8.43764 26.647 8.42572 26.6351 8.41976C26.6232 8.4138 26.6172 8.40784 26.6053 8.40188C26.5934 8.39592 26.5815 8.38996 26.5696 8.37804C26.5576 8.37208 26.5457 8.36612 26.5338 8.36016C26.5219 8.3542 26.51 8.34824 26.498 8.34228C26.4861 8.33632 26.4742 8.33036 26.4623 8.3244C26.4504 8.31844 26.4384 8.31844 26.4265 8.31248C26.4146 8.30652 26.3967 8.30056 26.3848 8.30056C26.3729 8.30056 26.361 8.2946 26.355 8.2946C26.3371 8.28864 26.3252 8.28864 26.3073 8.28864C26.3014 8.28864 26.2954 8.28268 26.2835 8.28268L6.03106 5.48739V2.6623C6.03106 2.6325 6.03106 2.6027 6.0251 2.57886C6.0251 2.5729 6.0251 2.56694 6.01914 2.55502C6.01914 2.53714 6.01318 2.51926 6.01318 2.50138C6.00722 2.4835 6.00722 2.47158 6.00126 2.4537C6.00126 2.44178 5.9953 2.43582 5.9953 2.4239C5.98934 2.40602 5.98338 2.38814 5.97742 2.37026C5.97742 2.3643 5.97146 2.35238 5.97146 2.34642C5.9655 2.32854 5.95954 2.31662 5.94762 2.29874C5.94166 2.29278 5.94166 2.28086 5.9357 2.2749C5.92974 2.26298 5.92378 2.25106 5.91186 2.23914C5.9059 2.22722 5.89994 2.22125 5.89398 2.20933C5.88802 2.19741 5.88206 2.19145 5.8761 2.17953C5.87014 2.16761 5.85822 2.15569 5.85226 2.14377C5.8463 2.13781 5.84034 2.13185 5.83438 2.12589C5.82246 2.11397 5.81054 2.10205 5.79862 2.09013C5.79266 2.08417 5.7867 2.07821 5.78074 2.07225C5.76882 2.06033 5.7569 2.04841 5.73902 2.03649C5.73306 2.03053 5.72114 2.02457 5.71518 2.01861C5.70326 2.00669 5.69134 2.00073 5.67942 1.98881C5.66154 1.97689 5.64366 1.96497 5.63174 1.95901C5.62578 1.95305 5.61982 1.95305 5.61386 1.94709C5.59002 1.93517 5.56022 1.92325 5.53638 1.91133L1.14378 0.0636986C0.732536 -0.109144 0.261688 0.0815789 0.088845 0.492826C-0.0839979 0.904073 0.106725 1.37492 0.517972 1.54776L4.41588 3.19275V6.84033V7.41846V11.8528V15.8162V20.8227C4.41588 22.4916 5.6675 23.8743 7.28269 24.0829C6.99064 24.5716 6.8178 25.1438 6.8178 25.7517C6.8178 27.5457 8.27802 29 10.0661 29C11.8541 29 13.3143 27.5398 13.3143 25.7517C13.3143 25.1557 13.1534 24.5895 12.8673 24.1127H20.1029C19.8168 24.5955 19.6559 25.1557 19.6559 25.7517C19.6559 27.5457 21.1161 29 22.9041 29C24.6921 29 26.1524 27.5398 26.1524 25.7517C26.1524 23.9637 24.6921 22.5035 22.9041 22.5035H7.70585C6.77608 22.5035 6.0251 21.7465 6.0251 20.8227V18.6413C6.51383 18.9274 7.09196 19.0943 7.70585 19.0943ZM11.711 25.7458C11.711 26.6517 10.972 27.3848 10.072 27.3848C9.17204 27.3848 8.43298 26.6457 8.43298 25.7458C8.43298 24.8458 9.17204 24.1067 10.072 24.1067C10.972 24.1067 11.711 24.8398 11.711 25.7458ZM24.5491 25.7458C24.5491 26.6517 23.81 27.3848 22.9101 27.3848C22.0101 27.3848 21.271 26.6457 21.271 25.7458C21.271 24.8458 22.0101 24.1067 22.9101 24.1067C23.81 24.1067 24.5491 24.8398 24.5491 25.7458ZM23.6849 17.4851H7.70585C6.77608 17.4851 6.0251 16.7281 6.0251 15.8043V11.8409V7.40654V7.10854L25.3656 9.7727V15.7984C25.3656 16.7341 24.6087 17.4851 23.6849 17.4851Z" fill="white"/>
</svg>
