<svg width="25" height="29" viewBox="0 0 25 29" fill="none" xmlns="http://www.w3.org/2000/svg">
<path d="M12.6052 15.626C12.5752 15.626 12.5451 15.626 12.5091 15.626C12.4971 15.626 12.4851 15.626 12.4731 15.626C12.4551 15.626 12.431 15.626 12.413 15.626C10.6534 15.596 9.23017 14.9774 8.17923 13.7944C5.86716 11.188 6.2515 6.72003 6.29354 6.29364C6.44367 3.09277 7.95703 1.5614 9.20615 0.846759C10.137 0.31228 11.224 0.0240215 12.437 0H12.4791C12.4851 0 12.4971 0 12.5031 0H12.5391C13.2057 0 14.5149 0.108097 15.77 0.822738C17.0312 1.53738 18.5685 3.06875 18.7187 6.29364C18.7607 6.72003 19.1451 11.188 16.833 13.7944C15.788 14.9774 14.3648 15.596 12.6052 15.626ZM17.1152 6.44378C17.1152 6.42576 17.1092 6.40775 17.1092 6.39573C16.9111 2.08987 13.8543 1.62746 12.5451 1.62746H12.5211C12.5091 1.62746 12.4911 1.62746 12.4731 1.62746C10.8516 1.66349 8.09515 2.32408 7.90899 6.39573C7.90899 6.41375 7.90899 6.43177 7.90298 6.44378C7.89697 6.48582 7.4766 10.5695 9.38631 12.7194C10.143 13.5722 11.1519 13.9925 12.4791 14.0046C12.4911 14.0046 12.4971 14.0046 12.5091 14.0046C12.5211 14.0046 12.5271 14.0046 12.5391 14.0046C13.8603 13.9925 14.8752 13.5722 15.6259 12.7194C17.5296 10.5815 17.1212 6.47981 17.1152 6.44378Z" fill="white"/>
<path d="M0.167992 23.0367C0.167992 23.0307 0.167992 23.0247 0.167992 23.0186C0.167992 22.9706 0.173996 22.9226 0.173996 22.8685C0.210028 21.6794 0.288099 18.8989 2.89444 18.0101C2.91245 18.0041 2.93647 17.9981 2.95449 17.9921C5.66292 17.3015 7.91494 15.7401 7.93896 15.7221C8.30529 15.4639 8.80974 15.5539 9.06797 15.9203C9.3262 16.2866 9.23612 16.7911 8.86979 17.0493C8.7677 17.1214 6.37756 18.7848 3.38688 19.5535C1.98762 20.052 1.83148 21.5473 1.78945 22.9166C1.78945 22.9706 1.78944 23.0186 1.78344 23.0667C1.77743 23.6072 1.81347 24.4419 1.90955 24.9224C2.88243 25.4749 6.69584 27.3846 12.497 27.3846C18.2742 27.3846 22.1117 25.4688 23.0905 24.9164C23.1866 24.4359 23.2287 23.6012 23.2167 23.0607C23.2167 23.0126 23.2107 22.9646 23.2107 22.9106C23.1686 21.5413 23.0125 20.046 21.6132 19.5475C18.6225 18.7788 16.2324 17.1093 16.1303 17.0433C15.764 16.785 15.6739 16.2806 15.9321 15.9143C16.1904 15.5479 16.6948 15.4579 17.0611 15.7161C17.0852 15.7341 19.3252 17.2955 22.0456 17.9861C22.0696 17.9921 22.0876 17.9981 22.1057 18.0041C24.712 18.8989 24.7901 21.6794 24.8261 22.8625C24.8261 22.9166 24.8261 22.9646 24.8321 23.0126C24.8321 23.0186 24.8321 23.0247 24.8321 23.0307C24.8381 23.3429 24.8441 24.9464 24.5258 25.7511C24.4658 25.9072 24.3577 26.0394 24.2136 26.1294C24.0334 26.2495 19.7155 29 12.491 29C5.26656 29 0.94869 26.2435 0.76853 26.1294C0.630405 26.0394 0.516302 25.9072 0.456249 25.7511C0.155979 24.9524 0.161985 23.3489 0.167992 23.0367Z" fill="white"/>
</svg>
